<?xml version="1.0" encoding="UTF-8" standalone="no"?>
<!-- Created with Inkscape (http://www.inkscape.org/) -->

<svg
   xmlns:dc="http://purl.org/dc/elements/1.1/"
   xmlns:cc="http://creativecommons.org/ns#"
   xmlns:rdf="http://www.w3.org/1999/02/22-rdf-syntax-ns#"
   xmlns:svg="http://www.w3.org/2000/svg"
   xmlns="http://www.w3.org/2000/svg"
   xmlns:sodipodi="http://sodipodi.sourceforge.net/DTD/sodipodi-0.dtd"
   xmlns:inkscape="http://www.inkscape.org/namespaces/inkscape"
   version="1.1"
   id="svg3767"
   width="1000"
   height="1000"
   viewBox="0 0 1000 1000"
   sodipodi:docname="catto.svg"
   inkscape:version="0.92.3 (2405546, 2018-03-11)">
  <metadata
     id="metadata3773">
    <rdf:RDF>
      <cc:Work
         rdf:about="">
        <dc:format>image/svg+xml</dc:format>
        <dc:type
           rdf:resource="http://purl.org/dc/dcmitype/StillImage" />
        <dc:title></dc:title>
      </cc:Work>
    </rdf:RDF>
  </metadata>
  <defs
     id="defs3771" />
  <sodipodi:namedview
     pagecolor="#ffffff"
     bordercolor="#666666"
     borderopacity="1"
     objecttolerance="10"
     gridtolerance="10"
     guidetolerance="10"
     inkscape:pageopacity="0"
     inkscape:pageshadow="2"
     inkscape:window-width="1366"
     inkscape:window-height="713"
     id="namedview3769"
     showgrid="false"
     inkscape:zoom="0.38452151"
     inkscape:cx="661.86207"
     inkscape:cy="453.93726"
     inkscape:window-x="0"
     inkscape:window-y="27"
     inkscape:window-maximized="1"
     inkscape:current-layer="svg3767" />
  <path
     inkscape:connector-curvature="0"
     id="path3779"
     d="M 452.24664,999.021 C 406.62434,994.70451 360.4923,982.86071 317.4845,964.42241 251.7357,936.23461 190.39341,888.12111 145.44981,829.48771 109.60392,782.35085 86.29448,734.99761 71.03431,679.40309 47.83028,593.49758 50.36475,506.7968 78.51939,423.3481 99.70344,360.55982 133.92748,305.63982 181.764,257.66934 c 49.27458,-49.41255 103.85357,-83.72169 169.46989,-106.53122 23.9809,-8.33622 61.79473,-17.28301 82.98058,-19.63328 4.57739,-0.5078 9.31342,-1.19409 10.52451,-1.52511 1.27491,-0.34846 4.44604,-6.28638 7.53224,-14.10405 16.2689,-41.210936 40.18354,-78.483356 67.8318,-105.719956 9.49999,-9.3585499 11.05047,-10.3659099 15.76445,-10.2423099 19.15062,0.50216 50.58909,36.5846599 64.76604,74.3331699 1.35304,3.60271 3.4742,6.830798 4.71367,7.173538 1.23952,0.34274 7.87134,1.01763 14.73744,1.49976 52.37189,3.67753 104.07433,18.254728 138.13777,38.947148 l 8.29622,5.03967 9.31491,-5.5101 c 32.05333,-18.96078 58.73342,-27.660598 80.97392,-26.403888 8.8964,0.50269 10.1699,0.9563 13.6644,4.867408 9.3808,10.49881 11.8624,52.42515 6.06,102.38385 -4.637,46.35318 -10.3853,75.15926 -30.5773,119.98332 -22.26703,55.00931 -57.13453,98.24623 -94.33692,116.98105 -26.95214,13.57286 -69.74665,20.96921 -102.40598,17.69924 -42.58811,-4.26409 -81.84851,-20.20584 -110.68266,-44.94288 -11.81698,-10.13788 -14.54475,-16.52404 -9.29882,-21.76997 4.07175,-4.07175 7.9107,-3.42709 15.82342,2.65715 32.95803,25.34214 74.43348,38.95605 118.95773,39.04672 30.75762,0.0627 51.88793,-4.47045 75.84604,-16.27124 14.16663,-6.97791 17.16649,-9.15767 29.99413,-21.79458 39.81848,-39.22649 68.66566,-110.99473 79.80906,-198.55554 3.7063,-29.12333 3.5128,-70.88798 -0.3397,-73.31554 -7.2309,-4.55634 -48.60188,14.2459 -70.95186,32.24607 -8.35375,6.72786 -13.7375,6.09598 -27.80354,-3.26317 -14.82713,-9.86563 -38.33841,-21.49823 -54.64727,-27.03765 -25.54313,-8.67586 -65.84921,-14.48457 -94.52212,-13.62203 -12.79195,0.3848 -13.89229,0.19879 -17.20932,-2.90909 -1.94899,-1.8261 -4.59504,-6.50753 -5.88011,-10.403178 -9.32888,-28.280118 -32.65999,-64.647248 -41.47407,-64.647248 -2.34084,0 -5.57496,2.92524 -11.88509,10.74996 -17.81244,22.08788 -33.86784,51.266038 -48.54377,88.220686 -5.69583,14.34236 -9.76639,22.66498 -11.70734,23.93674 -1.63653,1.0723 -10.72492,2.90386 -20.19643,4.07014 -90.31573,11.12113 -185.78756,59.02248 -246.68681,123.77089 -100.7828,107.15281 -136.26845,254.68495 -95.32839,396.32927 19.03268,64.29498 52.46619,118.48002 101.47273,170.55732 29.25016,29.5767 57.00654,50.5678 93.39953,70.6346 102.46689,56.4992 226.20728,65.6733 337.14134,24.9955 20.69754,-7.5895 64.27927,-29.7166 82.6826,-41.9792 61.60127,-41.0465 107.9105,-93.81132 140.77772,-160.40206 17.7843,-36.03221 27.1672,-63.15259 34.0805,-98.50622 13.9123,-71.14717 10.4038,-135.63574 -11.7591,-216.12972 -6.5654,-23.84557 -6.8861,-27.65584 -2.5815,-30.67093 7.5076,-5.25849 12.1352,-1.6376 20.3174,15.89723 11.3325,24.28619 21.5533,59.58176 25.9008,89.44299 4.4964,30.88492 4.8124,85.88681 0.6744,117.38699 -4.8439,36.87345 -18.1574,86.05788 -30.7401,113.56357 -17.8511,37.09583 -41.473,77.42258 -63.84776,105.41895 -20.90976,25.5205 -28.36166,33.503 -44.16138,47.3054 -61.44128,53.6745 -119.60993,84.1308 -195.57975,102.4031 -30.43712,7.3207 -52.54853,9.89099 -90.16089,10.48029 -18.69104,0.2928 -40.22562,-0.058 -47.85462,-0.7799 z M 717.627,343.88948 c -10.06237,-4.13866 -17.81908,-10.30508 -23.22051,-18.45967 -5.32851,-8.04459 -5.51369,-13.12258 -0.61899,-16.97275 5.54167,-4.3591 9.32197,-3.58666 17.3526,3.54561 13.22952,11.74975 23.34598,14.08545 38.27725,8.83754 14.68429,-5.16114 22.55367,-2.74903 22.55367,6.91312 0,4.51639 -0.8258,6.04986 -5.20158,9.65914 -12.22936,10.08706 -33.53715,12.89546 -49.14244,6.47701 z M 549.06534,307.16057 c -20.96951,-7.24561 -43.00852,-34.69603 -32.41018,-40.36809 1.47564,-0.78974 5.18282,-1.43589 8.23819,-1.43589 4.48319,0 6.78601,1.06527 11.93349,5.52038 15.19132,13.14801 27.51253,16.43612 44.89873,11.98198 16.15711,-4.13926 21.61266,-1.9404 20.76545,8.36952 -0.38163,4.6442 -1.31243,5.92165 -7.16468,9.83277 -12.98646,8.67899 -31.66713,11.14197 -46.261,6.09933 z"
     style="fill:#060807;stroke-width:1.38709044"
     sodipodi:nodetypes="csccsssscsscccssccscccssssscsssccccscsssscssccscscccccccccssccsccccscsssscscss" />
</svg>
